<svg xmlns="http://www.w3.org/2000/svg" viewBox="0 0 64 64" aria-label="Sakura flower line icon" role="img">
  <g fill="none" stroke="#000" stroke-width="2.8" stroke-linecap="round" stroke-linejoin="round">
    <path d="M32 13c3-2 7-2 10 0 4 3 4 9 1 14l-3 6-4-5c-4-5-6-11-4-15z"/>
    <path d="M48 21c4-1 7 1 8 4 2 4-1 8-6 10l-6 2-1-6c-1-6 1-9 5-10z"/>
    <path d="M46 40c2 3 2 7 0 10-3 4-9 4-13 1l-5-4 5-4c5-4 11-6 13-3z"/>
    <path d="M25 47c-2 3-6 4-9 3-5-1-7-6-5-11l2-6 6 1c6 1 9 4 6 13z"/>
    <path d="M14 25c-3 1-6 4-6 8 0 5 5 8 10 7l6-1-2-6c-2-6-5-9-8-8z"/>
  </g>

  <ellipse cx="32" cy="33" rx="5" ry="3.2" fill="#000"/>

  <g stroke="#000" stroke-width="2" stroke-linecap="round" fill="#000">
    <path d="M32 33c0-4 1-7 4-9"/><circle cx="37" cy="23" r="0.9"/>
    <path d="M32 33c-1-4-3-7-7-8"/><circle cx="24" cy="24" r="0.9"/>
    <path d="M32 33c3 0 6-1 8-4"/><circle cx="42" cy="29" r="0.9"/>
    <path d="M32 33c-3 0-6-1-8-4"/><circle cx="22" cy="30" r="0.9"/>
    <path d="M32 33c0-3 0-6-2-8"/><circle cx="30" cy="24" r="0.9"/>
  </g>
</svg>
